# xmcd
#
# Track frame offsets:
#	150
#	16108
#	30913
#	47640
#	64448
#	80360
#	95467
#	111605
#	127605
#	140029
#	154520
#	166335
#	178852
#	195182
#	205856
#	222520
#	235875
#	252728
#	266557
#	281909
#
# Disc length: 3965 seconds
#
# Revision: 0
# Processed by: cddbd v1.5.2PL0 Copyright (c) Steve Scherf et al.
# Submitted via: EasyCDDAExtractor 16.0.6.1
#
DISCID=1f0f7b14
DTITLE=Συλλογικός δίσκος - Τραγούδια 45 στροφές-Αγγελόπουλος Μανώλης 5
DYEAR=2001
DGENRE=Λαϊκή
TTITLE0=Αγγελόπουλος Μανώλης - Ποιος στό 'πε πως δεν σ' αγαπώ [Μπάμπης Μπακάλη
TTITLE0=ς]
TTITLE1=Βασιλείου Αννούλα-Χρυσάφη Άννα - Μαύρη θλιβερή κραυγή [Αν. Αθανασίου-Π
TTITLE1=όπη Αλαφούζου]
TTITLE2=Αγγελόπουλος Μανώλης - Πες μου, τι σού έκανα [Θεόδωρος Δερβενιώτης]
TTITLE3=Αγγελόπουλος Μανώλης - Με το αίμα της καρδιάς μου [Μπάμπης Μπακάλης]
TTITLE4=Αγγελόπουλος Μανώλης-Βασιλείου Αννούλα - Προδομένος από αγάπη [Π. Πετσ
TTITLE4=άς-Ε. Παπαγιαννοπούλου]
TTITLE5=Βασιλείου Αννούλα-Αγγελόπουλος Μανώλης - Πού να βρω γαλήνη [Μ. Αγγελόπ
TTITLE5=ουλος-Μιχ. Αλεξάκης]
TTITLE6=Αγγελόπουλος Μανώλης - Τον όρκο που σού δίνω [Αννούλα Βασιλείου]
TTITLE7=Αγγελόπουλος Μανώλης - Θρήνος και καϋμός είν' ο χωρισμός [Μπάμπης Μπακ
TTITLE7=άλης]
TTITLE8=Βασιλείου Αννούλα - Στο καλό αγαπημένε [Αντ. Ρεπάνης-Παν. Καμηλιέρης]
TTITLE9=Αγγελόπουλος Μανώλης - Μην αργείς [Π. Πετσάς]
TTITLE10=Αγγελόπουλος Μανώλης - Φεύγουν οι μετανάστες [Μ. Αγγελόπουλος-Μιχ. Αλ
TTITLE10=εξάκης]
TTITLE11=Βασιλείου Αννούλα - Γιατί μ' εγκατέλειψες [Στέφανος Βαρτάνης]
TTITLE12=Αγγελόπουλος Μανώλης - Καϋμό και πόνο [Νίκος Καρανικόλας]
TTITLE13=Βασιλείου Αννούλα - Οι αναμνήσεις μού πληγώνουν την καρδιά [Αντ. Ρεπά
TTITLE13=νης-Παν. Καμηλιέρης]
TTITLE14=Αγγελόπουλος Μανώλης - Στην εποχή που ζούμε [Θεόδωρος Δερβενιώτης]
TTITLE15=Βασιλείου Αννούλα - Τώρα που θα πας φαντάρος [Στέφανος Βαρτάνης]
TTITLE16=Βασιλείου Αννούλα - Το φτωχοκόριτσο [Μ. Αγγελόπουλος-Κ. Καρουσάκης/Μι
TTITLE16=χ. Αλεξάκης]
TTITLE17=Βασιλείου Αννούλα-Αγγελόπουλος Μανώλης - Εγώ είμαι η αγάπη σου [Μ. Αγ
TTITLE17=γελόπουλος-Μιχ. Αλεξάκης]
TTITLE18=Αγγελόπουλος Μανώλης - Στη στράτα μου δεν φάνηκες [Ε. Πιτσιλαδής-Ε. Π
TTITLE18=απαγιαννοπούλου]
TTITLE19=Βασιλείου Αννούλα - Έλα ξανά την χαραυγή [Ε. Πιτσιλαδής-Ε. Παπαγιαννο
TTITLE19=πούλου]
EXTD=
EXTT0=
EXTT1=
EXTT2=
EXTT3=
EXTT4=
EXTT5=
EXTT6=
EXTT7=
EXTT8=
EXTT9=
EXTT10=
EXTT11=
EXTT12=
EXTT13=
EXTT14=
EXTT15=
EXTT16=
EXTT17=
EXTT18=
EXTT19=
PLAYORDER=
